<svg width="111" height="120" viewBox="0 0 111 120" fill="none" xmlns="http://www.w3.org/2000/svg">
<g clip-path="url(#clip0_2901_45)">
<path fill-rule="evenodd" clip-rule="evenodd" d="M48.8272 1.03827C48.379 1.64956 47.9737 2.70626 47.9737 3.40048C47.9338 4.09164 47.7711 7.02214 47.6084 9.87277C47.2001 15.4481 47.4856 17.4018 48.8303 18.7472C50.0921 20.0097 52.1675 19.764 53.4692 18.2189L54.5683 16.9164L54.4056 9.67003C54.2429 3.15781 54.16 2.30385 53.3894 1.32702C52.2105 -0.301039 50.0123 -0.463844 48.8334 1.04134L48.8272 1.03827Z" fill="#065FA3"/>
<path fill-rule="evenodd" clip-rule="evenodd" d="M52.8951 43.9821C47.6881 44.836 41.9102 49.1519 39.5923 53.9132C38.576 56.0297 38.4133 56.8038 38.4133 59.8142C38.4133 64.0471 38.9844 65.798 41.0567 67.9145C43.9457 70.8849 45.45 71.4164 51.0223 71.4164C55.1731 71.4164 56.1893 71.2536 57.8165 70.5194C60.1774 69.4596 63.1861 66.4892 63.5944 64.8611C63.7571 64.2099 64.408 62.5819 65.0589 61.2395C69.1667 52.4879 68.2334 48.9891 60.7883 45.2415C57.9393 43.8162 55.9468 43.4906 52.8951 43.979V43.9821Z" fill="#065FA3"/>
<path fill-rule="evenodd" clip-rule="evenodd" d="M100.451 56.3553C98.784 56.641 96.7086 57.1694 95.895 57.5349C95.0416 57.9004 93.9425 58.1861 93.3714 58.1861C92.2723 58.1861 90.6851 59.8541 90.6851 61.0367C90.6851 61.4453 91.0504 62.2163 91.4986 62.7877C92.1495 63.6416 92.8004 63.8475 95.0385 64.0901C97.8047 64.3758 105.452 63.7246 107.119 63.0734C107.647 62.9106 108.707 62.0965 109.52 61.3224C111.31 59.6544 111.473 58.1892 110.008 56.7639C109.155 55.8669 108.707 55.7471 106.266 55.787C104.762 55.827 102.115 56.0727 100.448 56.3584L100.451 56.3553Z" fill="#065FA3"/>
<path fill-rule="evenodd" clip-rule="evenodd" d="M8.63306 60.2227C5.9068 60.834 3.10072 61.5651 2.40994 61.8508C-0.153606 62.9105 -0.764559 65.3925 1.02532 67.3462C2.04153 68.4459 2.12442 68.4459 5.17611 68.2002C9.93479 67.7517 12.133 67.1834 14.8593 65.6752C18.3162 63.7614 19.1298 61.8477 17.2601 60.0169C16.0382 58.7544 15.0619 58.7544 8.63613 60.2196L8.63306 60.2227Z" fill="#065FA3"/>
<path fill-rule="evenodd" clip-rule="evenodd" d="M44.4337 101.984L43.3745 103.044L43.5771 110.37C43.7798 116.842 43.9026 117.819 44.5933 118.756C45.5696 120.058 47.6051 120.384 48.9468 119.53C50.2485 118.676 51.2248 115.257 51.5103 110.616C51.7129 107.36 51.6331 106.506 51.0621 105.649C50.6967 105.077 50.4112 104.223 50.4112 103.775C50.4112 103.286 49.963 102.472 49.395 101.944C48.0104 100.559 45.8552 100.559 44.4306 101.984H44.4337Z" fill="#065FA3"/>
</g>
<defs>
<clipPath id="clip0_2901_45">
<rect width="111" height="120" fill="white"/>
</clipPath>
</defs>
</svg>
