<svg width="509" height="223" viewBox="0 0 509 223" fill="none" xmlns="http://www.w3.org/2000/svg">
<path d="M38.3101 1.16799C29.8316 4.80163 14.4319 44.8581 6.4725 84.136C0.935531 111.561 -1.31386 141.409 0.762501 158.626C4.13659 185.618 16.9408 203.613 40.9055 214.947C54.6614 221.435 75.1655 223.944 89.7866 221.003C109.166 217.11 129.324 206.728 139.36 195.654C143.859 190.636 149.395 182.244 152.424 175.929L155.019 170.392L158.134 172.381C170.419 180.254 184.694 175.409 196.027 159.577L197.844 156.982L198.969 159.145C201.478 163.903 206.409 168.834 210.562 170.824C220.684 175.496 231.066 171.603 240.236 159.75L244.13 154.646L248.023 158.193C252.695 162.605 256.501 164.249 261.779 164.249C266.277 164.249 270.517 162.519 273.285 159.577C275.188 157.587 275.275 157.587 279.428 158.885C282.975 160.01 284.273 160.01 287.214 159.145C293.27 157.328 296.298 153.694 303.479 139.16C307.113 131.806 310.573 125.663 311.092 125.577C311.525 125.404 312.65 127.567 313.515 130.249C319.225 148.417 329.433 161.134 342.411 165.979C357.032 171.516 377.882 172.901 389.908 169.007C396.223 167.017 397.175 166.931 405.74 167.71C410.758 168.142 420.274 168.921 426.936 169.44C439.74 170.392 442.855 170.997 460.244 176.361C474.26 180.6 478.845 181.206 487.064 179.476C493.293 178.178 506.703 173.506 508.087 172.122C508.433 171.776 507.309 169.353 505.665 166.758C503.242 163.124 500.82 160.961 495.023 157.414C485.853 151.618 480.748 149.455 467.512 146.081C454.188 142.62 442.768 140.89 432.819 140.89H424.86L426.244 137.17C428.493 131.373 428.147 120.645 425.638 115.454C419.669 103.169 406.172 98.1514 394.579 104.121C381.516 110.696 371.22 126.961 371.134 141.063V146.946H368.365C363.088 146.946 350.716 144.264 347.342 142.361C342.497 139.592 338.171 133.363 333.067 121.77C326.665 107.236 321.561 101.958 313.515 101.958C305.555 101.958 298.201 108.62 290.329 123.068C287.733 127.913 285.224 132.325 284.792 133.017C284.186 134.055 283.58 133.882 281.245 132.152C277.697 129.556 272.68 129.47 269.305 131.892C268.008 132.844 265.672 135.526 264.115 137.775L261.433 141.928L260.048 139.938C257.972 136.651 256.069 131.633 255.117 126.788C253.646 119.002 248.109 115.281 241.967 117.877C237.814 119.607 236.17 122.462 235.305 129.21C234.44 136.391 231.152 142.88 225.096 149.628C219.04 156.376 217.656 156.203 213.936 148.676C211.859 144.61 210.648 140.198 209.437 132.931C208.485 127.394 207.274 122.03 206.755 121.078C205.544 118.656 203.121 117.531 199.401 117.531C194.816 117.531 192.48 120.472 190.75 128.605C189.019 136.91 187.116 142.966 184.953 147.206C181.32 154.386 173.447 160.702 169.467 159.491C164.19 157.76 160.989 150.666 160.902 140.457C160.815 122.462 156.23 109.744 148.617 105.765C145.589 104.208 138.149 104.208 135.034 105.851C126.382 110.264 117.817 127.913 115.741 145.302C114.184 158.799 117.125 168.229 124.652 173.679L128.026 176.188L123.441 180.773C112.8 191.415 93.7663 198.942 77.4149 199.028C53.6232 199.028 32.7731 186.397 26.8901 168.402C23.9486 159.231 23.0834 152.31 23.1699 137.17C23.3429 103.861 29.8316 67.0925 42.3763 28.0742C48.7784 8.0892 49.0379 3.76345 44.0201 1.16799C41.1651 -0.389278 41.7707 -0.389278 38.3101 1.16799ZM140.83 145.475C139.965 151.185 137.889 158.279 136.418 160.269C135.207 161.913 135.12 161.827 133.563 159.491C130.276 154.473 132.006 140.89 137.37 129.643L140.484 123.154L141.004 132.238C141.263 137.256 141.177 143.226 140.83 145.475ZM403.577 129.383C402.279 132.498 397.175 138.641 396.483 137.948C395.271 136.824 402.193 126.182 404.096 126.182C404.529 126.182 404.269 127.653 403.577 129.383Z" fill="black"/>
</svg>
