<svg width="328" height="397" viewBox="0 0 328 397" fill="none" xmlns="http://www.w3.org/2000/svg">
<path d="M238.908 1.39261C236.908 3.39261 236.641 23.3926 238.641 28.4593C239.841 31.5259 240.508 31.9259 245.575 31.5259L251.308 31.1259V15.7926V0.459279L245.975 0.0592792C242.908 -0.207387 239.841 0.459279 238.908 1.39261Z" fill="black"/>
<path d="M59.0418 56.4593C45.9751 62.0593 22.2418 123.793 9.97513 184.326C1.4418 226.593 -2.02487 272.593 1.17513 299.126C6.37513 340.726 26.1085 368.459 63.0418 385.926C79.9751 393.926 91.1751 396.193 114.642 396.326C142.508 396.459 152.508 394.059 161.708 385.126C166.775 380.059 167.975 377.926 167.975 374.326C167.975 368.859 164.108 360.059 160.108 356.593C157.442 354.059 157.175 354.059 147.708 356.859C128.642 362.459 112.642 362.993 93.9751 358.326C77.0418 354.193 59.1751 342.859 49.9751 330.326C39.4418 315.926 35.5751 298.593 35.7085 266.059C35.9751 214.726 45.9751 158.059 65.3085 97.926C75.1751 67.126 75.5751 60.4593 67.8418 56.4593C63.4418 54.0593 64.3751 54.0593 59.0418 56.4593Z" fill="black"/>
<path d="M239.442 65.7926C231.708 68.4592 227.842 71.7926 223.042 79.6592C215.175 92.7259 215.975 110.059 225.042 120.059C233.308 129.259 241.442 131.793 252.375 128.593C265.708 124.726 273.708 112.859 273.575 97.1259C273.575 79.7926 268.642 70.8592 257.575 67.3926C247.175 64.0592 244.908 63.9259 239.442 65.7926Z" fill="black"/>
<path d="M302.641 80.5926C300.775 80.9926 297.441 81.5259 295.041 81.9259C285.175 83.5259 279.175 93.6592 285.041 98.9926C292.241 105.393 314.375 106.459 322.908 100.593C331.575 94.8592 328.241 83.5259 317.441 81.6592C308.775 80.3259 305.975 80.0592 302.641 80.5926Z" fill="black"/>
<path d="M147.308 93.7925C140.242 96.3259 134.775 102.993 134.642 109.126C134.642 114.593 135.575 116.193 139.575 118.326C144.108 120.593 150.375 120.059 161.975 116.059C171.042 112.993 172.775 111.926 173.975 108.726C175.575 103.926 173.042 99.1259 166.775 94.8592C161.575 91.3925 155.175 90.9925 147.308 93.7925Z" fill="black"/>
<path d="M242.242 150.859C237.575 154.193 233.708 177.393 236.375 185.126C238.242 190.459 243.842 193.393 247.708 190.993C252.108 188.193 253.308 183.393 253.308 168.726C253.308 156.193 253.042 154.193 250.642 151.793C247.575 148.726 245.442 148.459 242.242 150.859Z" fill="black"/>
</svg>
